<svg width="45" height="38" viewBox="0 0 45 38" fill="none" xmlns="http://www.w3.org/2000/svg">
<mask id="path-1-outside-1" maskUnits="userSpaceOnUse" x="0.491211" y="0" width="44" height="38" fill="black">
<rect fill="white" x="0.491211" width="44" height="38"/>
<path fill-rule="evenodd" clip-rule="evenodd" d="M16.1645 1H2.49121L7.84534 13.6552V36.0357H36.7144V13.672L42.563 1H29.6901L26.1663 12.4524H20.1288L16.1645 1ZM9.50808 12.4524L5.50899 3H14.7404L18.0124 12.4524H9.50808ZM9.84534 14.4524V34.0357H18.4167V14.4524H9.84534ZM20.4167 34.0357V14.4524H27.6434L34.7144 14.4524V34.0357H20.4167ZM35.0746 12.4524L39.4372 3H31.1672L28.2588 12.4524H35.0746Z"/>
</mask>
<path fill-rule="evenodd" clip-rule="evenodd" d="M16.1645 1H2.49121L7.84534 13.6552V36.0357H36.7144V13.672L42.563 1H29.6901L26.1663 12.4524H20.1288L16.1645 1ZM9.50808 12.4524L5.50899 3H14.7404L18.0124 12.4524H9.50808ZM9.84534 14.4524V34.0357H18.4167V14.4524H9.84534ZM20.4167 34.0357V14.4524H27.6434L34.7144 14.4524V34.0357H20.4167ZM35.0746 12.4524L39.4372 3H31.1672L28.2588 12.4524H35.0746Z" fill="black"/>
<path d="M2.49121 1V0H0.982319L1.57024 1.38964L2.49121 1ZM16.1645 1L17.1095 0.672889L16.8766 0H16.1645V1ZM7.84534 13.6552H8.84534V13.4524L8.76631 13.2656L7.84534 13.6552ZM7.84534 36.0357H6.84534V37.0357H7.84534V36.0357ZM36.7144 36.0357V37.0357H37.7144V36.0357H36.7144ZM36.7144 13.672L35.8064 13.253L35.7144 13.4524V13.672H36.7144ZM42.563 1L43.471 1.41906L44.1259 0H42.563V1ZM29.6901 1V0H28.9515L28.7343 0.705914L29.6901 1ZM26.1663 12.4524V13.4524H26.9049L27.1221 12.7465L26.1663 12.4524ZM20.1288 12.4524L19.1838 12.7795L19.4168 13.4524H20.1288V12.4524ZM5.50899 3V2H4.0001L4.58803 3.38964L5.50899 3ZM9.50808 12.4524L8.58711 12.842L8.84534 13.4524H9.50808V12.4524ZM14.7404 3L15.6854 2.67289L15.4525 2H14.7404V3ZM18.0124 12.4524V13.4524H19.4168L18.9574 12.1253L18.0124 12.4524ZM9.84534 14.4524V13.4524H8.84534V14.4524H9.84534ZM9.84534 34.0357H8.84534V35.0357H9.84534V34.0357ZM18.4167 34.0357V35.0357H19.4167V34.0357H18.4167ZM18.4167 14.4524H19.4167V13.4524H18.4167V14.4524ZM20.4167 14.4524V13.4524H19.4167V14.4524H20.4167ZM20.4167 34.0357H19.4167V35.0357H20.4167V34.0357ZM27.6434 14.4524V15.4524V14.4524ZM34.7144 14.4524H35.7144V13.4524L34.7144 13.4524V14.4524ZM34.7144 34.0357V35.0357H35.7144V34.0357H34.7144ZM39.4372 3L40.3452 3.41906L41.0001 2H39.4372V3ZM35.0746 12.4524V13.4524H35.7144L35.9825 12.8714L35.0746 12.4524ZM31.1672 3V2H30.4287L30.2115 2.70591L31.1672 3ZM28.2588 12.4524L27.303 12.1583L26.9049 13.4524H28.2588V12.4524ZM2.49121 2H16.1645V0H2.49121V2ZM8.76631 13.2656L3.41218 0.61036L1.57024 1.38964L6.92437 14.0449L8.76631 13.2656ZM8.84534 36.0357V13.6552H6.84534V36.0357H8.84534ZM36.7144 35.0357H7.84534V37.0357H36.7144V35.0357ZM35.7144 13.672V36.0357H37.7144V13.672H35.7144ZM41.6551 0.580942L35.8064 13.253L37.6223 14.0911L43.471 1.41906L41.6551 0.580942ZM29.6901 2H42.563V0H29.6901V2ZM27.1221 12.7465L30.6459 1.29409L28.7343 0.705914L25.2105 12.1583L27.1221 12.7465ZM20.1288 13.4524H26.1663V11.4524H20.1288V13.4524ZM15.2196 1.32711L19.1838 12.7795L21.0738 12.1253L17.1095 0.672889L15.2196 1.32711ZM4.58803 3.38964L8.58711 12.842L10.429 12.0627L6.42996 2.61036L4.58803 3.38964ZM14.7404 2H5.50899V4H14.7404V2ZM18.9574 12.1253L15.6854 2.67289L13.7954 3.32711L17.0674 12.7795L18.9574 12.1253ZM9.50808 13.4524H18.0124V11.4524H9.50808V13.4524ZM8.84534 14.4524V34.0357H10.8453V14.4524H8.84534ZM9.84534 35.0357H18.4167V33.0357H9.84534V35.0357ZM19.4167 34.0357V14.4524H17.4167V34.0357H19.4167ZM18.4167 13.4524H9.84534V15.4524H18.4167V13.4524ZM19.4167 14.4524V34.0357H21.4167V14.4524H19.4167ZM27.6434 13.4524H20.4167V15.4524H27.6434V13.4524ZM34.7144 13.4524L27.6434 13.4524V15.4524L34.7144 15.4524V13.4524ZM35.7144 34.0357V14.4524H33.7144V34.0357H35.7144ZM20.4167 35.0357H34.7144V33.0357H20.4167V35.0357ZM38.5292 2.58094L34.1666 12.0333L35.9825 12.8714L40.3452 3.41906L38.5292 2.58094ZM31.1672 4H39.4372V2H31.1672V4ZM29.2146 12.7465L32.123 3.29409L30.2115 2.70591L27.303 12.1583L29.2146 12.7465ZM35.0746 11.4524H28.2588V13.4524H35.0746V11.4524Z" fill="white" mask="url(#path-1-outside-1)"/>
</svg>
