<svg width="32" height="33" viewBox="0 0 32 33" fill="none" xmlns="http://www.w3.org/2000/svg">
<mask id="path-1-outside-1" maskUnits="userSpaceOnUse" x="0" y="0" width="32" height="33" fill="black">
<rect fill="white" width="32" height="33"/>
<path fill-rule="evenodd" clip-rule="evenodd" d="M17.0475 2.34998C17.5247 1.97694 18.2259 1.55601 19.0654 1.28507C20.1702 0.928512 21.5615 0.818758 22.9917 1.47831C24.0983 1.98866 24.8006 2.7689 25.2065 3.68893C25.5043 4.36375 25.6333 5.09148 25.6733 5.80651L30.5872 5.80653V13.7384H28.8152V31.9372H2.77203V13.7384H1V5.80653H5.97749C6.01747 5.0915 6.14645 4.36376 6.44423 3.68893C6.85021 2.7689 7.55243 1.98866 8.6591 1.47831C10.0893 0.818758 11.4806 0.928512 12.5854 1.28507C13.4248 1.55601 14.1261 1.97694 14.6033 2.34998H17.0475ZM11.2778 5.80653H7.56967C7.60744 5.25689 7.70848 4.76008 7.89806 4.33046C8.15154 3.75602 8.57813 3.26557 9.32457 2.92133C10.3069 2.46831 11.2717 2.53087 12.0973 2.79733C12.6232 2.96709 13.0737 3.21434 13.4042 3.44081V4.76957H11.2778V5.80653ZM17.988 3.632V4.76957H20.0879V5.24435H20.088V5.8426L24.0811 5.80687C24.0434 5.25709 23.9423 4.76016 23.7527 4.33046C23.4992 3.75602 23.0726 3.26557 22.3262 2.92133C21.3438 2.46831 20.3791 2.53087 19.5535 2.79733C18.8735 3.01681 18.3197 3.36586 17.988 3.632ZM18.4989 7.44596L18.4988 7.44596V6.38893H13.0884V30.3481H18.4989V7.44596ZM14.9933 4.79984V3.93906H16.399V4.79984H14.9933ZM2.58908 7.39562H11.4993V12.1493H4.36111V12.1493H2.58908V7.39562ZM4.36111 13.7384H11.4993V30.3481H4.36111V13.7384ZM20.088 30.3481H27.2261V13.7384H20.088V30.3481ZM20.088 12.1493V7.43175L24.1257 7.39562H28.9981V12.1493H27.2261V12.1493H20.088Z"/>
</mask>
<path fill-rule="evenodd" clip-rule="evenodd" d="M17.0475 2.34998C17.5247 1.97694 18.2259 1.55601 19.0654 1.28507C20.1702 0.928512 21.5615 0.818758 22.9917 1.47831C24.0983 1.98866 24.8006 2.7689 25.2065 3.68893C25.5043 4.36375 25.6333 5.09148 25.6733 5.80651L30.5872 5.80653V13.7384H28.8152V31.9372H2.77203V13.7384H1V5.80653H5.97749C6.01747 5.0915 6.14645 4.36376 6.44423 3.68893C6.85021 2.7689 7.55243 1.98866 8.6591 1.47831C10.0893 0.818758 11.4806 0.928512 12.5854 1.28507C13.4248 1.55601 14.1261 1.97694 14.6033 2.34998H17.0475ZM11.2778 5.80653H7.56967C7.60744 5.25689 7.70848 4.76008 7.89806 4.33046C8.15154 3.75602 8.57813 3.26557 9.32457 2.92133C10.3069 2.46831 11.2717 2.53087 12.0973 2.79733C12.6232 2.96709 13.0737 3.21434 13.4042 3.44081V4.76957H11.2778V5.80653ZM17.988 3.632V4.76957H20.0879V5.24435H20.088V5.8426L24.0811 5.80687C24.0434 5.25709 23.9423 4.76016 23.7527 4.33046C23.4992 3.75602 23.0726 3.26557 22.3262 2.92133C21.3438 2.46831 20.3791 2.53087 19.5535 2.79733C18.8735 3.01681 18.3197 3.36586 17.988 3.632ZM18.4989 7.44596L18.4988 7.44596V6.38893H13.0884V30.3481H18.4989V7.44596ZM14.9933 4.79984V3.93906H16.399V4.79984H14.9933ZM2.58908 7.39562H11.4993V12.1493H4.36111V12.1493H2.58908V7.39562ZM4.36111 13.7384H11.4993V30.3481H4.36111V13.7384ZM20.088 30.3481H27.2261V13.7384H20.088V30.3481ZM20.088 12.1493V7.43175L24.1257 7.39562H28.9981V12.1493H27.2261V12.1493H20.088Z" fill="black"/>
<path d="M19.0654 1.28507L19.3726 2.23673V2.23673L19.0654 1.28507ZM17.0475 2.34998V3.34998H17.392L17.6634 3.13781L17.0475 2.34998ZM22.9917 1.47831L22.5729 2.3864L22.5729 2.3864L22.9917 1.47831ZM25.2065 3.68893L26.1214 3.28522V3.28522L25.2065 3.68893ZM25.6733 5.80651L24.6748 5.86234L24.7276 6.80651L25.6733 6.80651L25.6733 5.80651ZM30.5872 5.80653H31.5872V4.80654L30.5872 4.80653L30.5872 5.80653ZM30.5872 13.7384V14.7384H31.5872V13.7384H30.5872ZM28.8152 13.7384V12.7384H27.8152V13.7384H28.8152ZM28.8152 31.9372V32.9372H29.8152V31.9372H28.8152ZM2.77203 31.9372H1.77203V32.9372H2.77203V31.9372ZM2.77203 13.7384H3.77203V12.7384H2.77203V13.7384ZM1 13.7384H0V14.7384H1V13.7384ZM1 5.80653V4.80653H0V5.80653H1ZM5.97749 5.80653V6.80653H6.92313L6.97593 5.86237L5.97749 5.80653ZM6.44423 3.68893L5.52934 3.28522V3.28522L6.44423 3.68893ZM8.6591 1.47831L9.07788 2.3864V2.3864L8.6591 1.47831ZM12.5854 1.28507L12.2782 2.23673L12.2782 2.23673L12.5854 1.28507ZM14.6033 2.34998L13.9874 3.13781L14.2588 3.34998H14.6033V2.34998ZM7.56967 5.80653L6.57202 5.73798L6.4986 6.80653H7.56967V5.80653ZM11.2778 5.80653V6.80653H12.2778V5.80653H11.2778ZM7.89806 4.33046L6.98317 3.92675L6.98317 3.92675L7.89806 4.33046ZM9.32457 2.92133L8.9058 2.01325V2.01325L9.32457 2.92133ZM12.0973 2.79733L12.4044 1.84567L12.4044 1.84567L12.0973 2.79733ZM13.4042 3.44081H14.4042V2.91374L13.9694 2.61585L13.4042 3.44081ZM13.4042 4.76957V5.76957H14.4042V4.76957H13.4042ZM11.2778 4.76957V3.76957H10.2778V4.76957H11.2778ZM17.988 4.76957H16.988V5.76957H17.988V4.76957ZM17.988 3.632L17.3621 2.85212L16.988 3.15235V3.632H17.988ZM20.0879 4.76957H21.0879V3.76957H20.0879V4.76957ZM20.0879 5.24435H19.0879V6.24435H20.0879V5.24435ZM20.088 5.24435H21.088V4.24435H20.088V5.24435ZM20.088 5.8426H19.088V6.85159L20.0969 6.84256L20.088 5.8426ZM24.0811 5.80687L24.0901 6.80683L25.1515 6.79733L25.0788 5.73837L24.0811 5.80687ZM23.7527 4.33046L22.8378 4.73417V4.73417L23.7527 4.33046ZM22.3262 2.92133L21.9074 3.82942L21.9074 3.82942L22.3262 2.92133ZM19.5535 2.79733L19.8607 3.74899L19.5535 2.79733ZM18.4988 7.44596H17.4988V8.45666L18.5095 8.44591L18.4988 7.44596ZM18.4989 7.44596H19.4989V6.43527L18.4883 6.44602L18.4989 7.44596ZM18.4988 6.38893H19.4988V5.38893H18.4988V6.38893ZM13.0884 6.38893V5.38893H12.0884V6.38893H13.0884ZM13.0884 30.3481H12.0884V31.3481H13.0884V30.3481ZM18.4989 30.3481V31.3481H19.4989V30.3481H18.4989ZM14.9933 4.79984H13.9933V5.79984H14.9933V4.79984ZM14.9933 3.93906V2.93906H13.9933V3.93906H14.9933ZM16.399 3.93906H17.399V2.93906H16.399V3.93906ZM16.399 4.79984V5.79984H17.399V4.79984H16.399ZM11.4993 7.39562H12.4993V6.39562H11.4993V7.39562ZM2.58908 7.39562V6.39562H1.58908V7.39562H2.58908ZM11.4993 12.1493V13.1493H12.4993V12.1493H11.4993ZM4.36111 12.1493H3.36111V13.1493H4.36111V12.1493ZM4.36111 12.1493H5.36111V11.1493H4.36111V12.1493ZM2.58908 12.1493H1.58908V13.1493H2.58908V12.1493ZM11.4993 13.7384H12.4993V12.7384H11.4993V13.7384ZM4.36111 13.7384V12.7384H3.36111V13.7384H4.36111ZM11.4993 30.3481V31.3481H12.4993V30.3481H11.4993ZM4.36111 30.3481H3.36111V31.3481H4.36111V30.3481ZM27.2261 30.3481V31.3481H28.2261V30.3481H27.2261ZM20.088 30.3481H19.088V31.3481H20.088V30.3481ZM27.2261 13.7384H28.2261V12.7384H27.2261V13.7384ZM20.088 13.7384V12.7384H19.088V13.7384H20.088ZM20.088 7.43175L20.079 6.43179L19.088 6.44065V7.43175H20.088ZM20.088 12.1493H19.088V13.1493H20.088V12.1493ZM24.1257 7.39562V6.39558L24.1168 6.39566L24.1257 7.39562ZM28.9981 7.39562H29.9981V6.39562H28.9981V7.39562ZM28.9981 12.1493V13.1493H29.9981V12.1493H28.9981ZM27.2261 12.1493V11.1493H26.2261V12.1493H27.2261ZM27.2261 12.1493V13.1493H28.2261V12.1493H27.2261ZM18.7583 0.333405C17.7918 0.645325 16.9878 1.12735 16.4316 1.56215L17.6634 3.13781C18.0616 2.82652 18.66 2.4667 19.3726 2.23673L18.7583 0.333405ZM23.4104 0.570217C21.6981 -0.219458 20.0382 -0.0796937 18.7583 0.333405L19.3726 2.23673C20.3021 1.93672 21.4249 1.85697 22.5729 2.3864L23.4104 0.570217ZM26.1214 3.28522C25.6195 2.14776 24.7439 1.18514 23.4104 0.570217L22.5729 2.3864C23.4528 2.79219 23.9816 3.39004 24.2917 4.09264L26.1214 3.28522ZM26.6717 5.75068C26.6274 4.95849 26.4825 4.10345 26.1214 3.28522L24.2917 4.09264C24.5261 4.62404 24.6392 5.22448 24.6748 5.86234L26.6717 5.75068ZM30.5872 4.80653L25.6733 4.80651L25.6733 6.80651L30.5872 6.80653L30.5872 4.80653ZM31.5872 13.7384V5.80653H29.5872V13.7384H31.5872ZM28.8152 14.7384H30.5872V12.7384H28.8152V14.7384ZM29.8152 31.9372V13.7384H27.8152V31.9372H29.8152ZM2.77203 32.9372H28.8152V30.9372H2.77203V32.9372ZM1.77203 13.7384V31.9372H3.77203V13.7384H1.77203ZM1 14.7384H2.77203V12.7384H1V14.7384ZM0 5.80653V13.7384H2V5.80653H0ZM5.97749 4.80653H1V6.80653H5.97749V4.80653ZM5.52934 3.28522C5.16828 4.10346 5.02334 4.95851 4.97904 5.7507L6.97593 5.86237C7.01159 5.22449 7.12462 4.62405 7.35911 4.09264L5.52934 3.28522ZM8.24033 0.570217C6.90692 1.18514 6.03126 2.14776 5.52934 3.28522L7.35911 4.09264C7.66915 3.39004 8.19794 2.79219 9.07788 2.3864L8.24033 0.570217ZM12.8925 0.333405C11.6126 -0.0796937 9.95269 -0.219458 8.24033 0.570217L9.07788 2.3864C10.2259 1.85697 11.3487 1.93672 12.2782 2.23673L12.8925 0.333405ZM15.2192 1.56215C14.663 1.12735 13.8589 0.645326 12.8925 0.333405L12.2782 2.23673C12.9907 2.4667 13.5892 2.82652 13.9874 3.13781L15.2192 1.56215ZM17.0475 1.34998H14.6033V3.34998H17.0475V1.34998ZM7.56967 6.80653H11.2778V4.80653H7.56967V6.80653ZM6.98317 3.92675C6.73282 4.4941 6.61496 5.11313 6.57202 5.73798L8.56732 5.87509C8.59992 5.40065 8.68415 5.02605 8.81294 4.73417L6.98317 3.92675ZM8.9058 2.01325C7.93274 2.46198 7.33265 3.13475 6.98317 3.92675L8.81294 4.73417C8.97042 4.37729 9.22351 4.06915 9.74335 3.82942L8.9058 2.01325ZM12.4044 1.84567C11.4025 1.5223 10.1695 1.43049 8.9058 2.01325L9.74335 3.82942C10.4444 3.50613 11.1408 3.53944 11.7901 3.74899L12.4044 1.84567ZM13.9694 2.61585C13.5741 2.34501 13.0376 2.05003 12.4044 1.84567L11.7901 3.74899C12.2089 3.88415 12.5733 4.08368 12.839 4.26576L13.9694 2.61585ZM14.4042 4.76957V3.44081H12.4042V4.76957H14.4042ZM11.2778 5.76957H13.4042V3.76957H11.2778V5.76957ZM12.2778 5.80653V4.76957H10.2778V5.80653H12.2778ZM18.988 4.76957V3.632H16.988V4.76957H18.988ZM20.0879 3.76957H17.988V5.76957H20.0879V3.76957ZM21.0879 5.24435V4.76957H19.0879V5.24435H21.0879ZM20.088 4.24435H20.0879V6.24435H20.088V4.24435ZM21.088 5.8426V5.24435H19.088V5.8426H21.088ZM24.0722 4.80691L20.079 4.84264L20.0969 6.84256L24.0901 6.80683L24.0722 4.80691ZM22.8378 4.73417C22.9667 5.02611 23.0509 5.40081 23.0835 5.87537L25.0788 5.73837C25.0359 5.11338 24.918 4.49422 24.6676 3.92675L22.8378 4.73417ZM21.9074 3.82942C22.4273 4.06916 22.6804 4.37729 22.8378 4.73417L24.6676 3.92675C24.3181 3.13475 23.718 2.46198 22.745 2.01324L21.9074 3.82942ZM19.8607 3.74899C20.5099 3.53944 21.2064 3.50613 21.9074 3.82942L22.745 2.01325C21.4813 1.43049 20.2483 1.5223 19.2464 1.84567L19.8607 3.74899ZM18.614 4.41188C18.8673 4.20856 19.3152 3.92506 19.8607 3.74899L19.2464 1.84567C18.4318 2.10857 17.772 2.52315 17.3621 2.85212L18.614 4.41188ZM18.5095 8.44591L18.5096 8.44591L18.4883 6.44602L18.4882 6.44602L18.5095 8.44591ZM17.4988 6.38893V7.44596H19.4988V6.38893H17.4988ZM18.4988 5.38893H13.0884V7.38893H18.4988V5.38893ZM14.0884 30.3481V6.38893H12.0884V30.3481H14.0884ZM18.4989 29.3481H13.0884V31.3481H18.4989V29.3481ZM17.4989 7.44596V30.3481H19.4989V7.44596H17.4989ZM15.9933 4.79984V3.93906H13.9933V4.79984H15.9933ZM14.9933 4.93906H16.399V2.93906H14.9933V4.93906ZM15.399 3.93906V4.79984H17.399V3.93906H15.399ZM14.9933 5.79984H16.399V3.79984H14.9933V5.79984ZM11.4993 6.39562H2.58908V8.39562H11.4993V6.39562ZM12.4993 12.1493V7.39562H10.4993V12.1493H12.4993ZM4.36111 13.1493H11.4993V11.1493H4.36111V13.1493ZM3.36111 12.1493V12.1493H5.36111V12.1493H3.36111ZM2.58908 13.1493H4.36111V11.1493H2.58908V13.1493ZM1.58908 7.39562V12.1493H3.58908V7.39562H1.58908ZM11.4993 12.7384H4.36111V14.7384H11.4993V12.7384ZM12.4993 30.3481V13.7384H10.4993V30.3481H12.4993ZM4.36111 31.3481H11.4993V29.3481H4.36111V31.3481ZM3.36111 13.7384V30.3481H5.36111V13.7384H3.36111ZM27.2261 29.3481H20.088V31.3481H27.2261V29.3481ZM26.2261 13.7384V30.3481H28.2261V13.7384H26.2261ZM20.088 14.7384H27.2261V12.7384H20.088V14.7384ZM21.088 30.3481V13.7384H19.088V30.3481H21.088ZM19.088 7.43175V12.1493H21.088V7.43175H19.088ZM24.1168 6.39566L20.079 6.43179L20.0969 8.4317L24.1347 8.39558L24.1168 6.39566ZM28.9981 6.39562H24.1257V8.39562H28.9981V6.39562ZM29.9981 12.1493V7.39562H27.9981V12.1493H29.9981ZM27.2261 13.1493H28.9981V11.1493H27.2261V13.1493ZM28.2261 12.1493V12.1493H26.2261V12.1493H28.2261ZM20.088 13.1493H27.2261V11.1493H20.088V13.1493Z" fill="white" mask="url(#path-1-outside-1)"/>
</svg>
