<svg width="30" height="40" viewBox="0 0 30 40" fill="none" xmlns="http://www.w3.org/2000/svg">
<mask id="path-1-outside-1" maskUnits="userSpaceOnUse" x="0" y="0" width="30" height="40" fill="black">
<rect fill="white" width="30" height="40"/>
<path fill-rule="evenodd" clip-rule="evenodd" d="M22.4474 7.72271C21.8243 3.91712 18.5214 1 14.5429 1C10.5638 1 7.26162 3.91712 6.63847 7.72271H1V39H28.0859V7.72271H22.4474ZM14.5429 3.59371C17.0872 3.59371 19.222 5.35632 19.8049 7.72271H9.28023C9.86466 5.35632 11.9994 3.59371 14.5429 3.59371ZM14.4339 19.4801L16.5823 22.0644H8.05396V24.6567H16.5837L14.4339 27.2425L16.4281 28.9005L21.0333 23.3609L16.4281 17.8221L14.4339 19.4801Z"/>
</mask>
<path fill-rule="evenodd" clip-rule="evenodd" d="M22.4474 7.72271C21.8243 3.91712 18.5214 1 14.5429 1C10.5638 1 7.26162 3.91712 6.63847 7.72271H1V39H28.0859V7.72271H22.4474ZM14.5429 3.59371C17.0872 3.59371 19.222 5.35632 19.8049 7.72271H9.28023C9.86466 5.35632 11.9994 3.59371 14.5429 3.59371ZM14.4339 19.4801L16.5823 22.0644H8.05396V24.6567H16.5837L14.4339 27.2425L16.4281 28.9005L21.0333 23.3609L16.4281 17.8221L14.4339 19.4801Z" fill="black"/>
<path d="M22.4474 7.72271L21.4606 7.88431L21.5979 8.72271H22.4474V7.72271ZM6.63847 7.72271V8.72271H7.48805L7.62533 7.88431L6.63847 7.72271ZM1 7.72271V6.72271H0V7.72271H1ZM1 39H0V40H1V39ZM28.0859 39V40H29.0859V39H28.0859ZM28.0859 7.72271H29.0859V6.72271H28.0859V7.72271ZM19.8049 7.72271V8.72271H21.0812L20.7759 7.4835L19.8049 7.72271ZM9.28023 7.72271L8.3094 7.48295L8.00321 8.72271H9.28023V7.72271ZM16.5823 22.0644V23.0644H18.714L17.3513 21.4252L16.5823 22.0644ZM14.4339 19.4801L13.7946 18.7111L13.0257 19.3503L13.6649 20.1193L14.4339 19.4801ZM8.05396 22.0644V21.0644H7.05396V22.0644H8.05396ZM8.05396 24.6567H7.05396V25.6567H8.05396V24.6567ZM16.5837 24.6567L17.3527 25.296L18.7156 23.6567H16.5837V24.6567ZM14.4339 27.2425L13.6649 26.6032L13.0256 27.3722L13.7946 28.0115L14.4339 27.2425ZM16.4281 28.9005L15.7888 29.6694L16.5578 30.3087L17.1971 29.5397L16.4281 28.9005ZM21.0333 23.3609L21.8022 24.0002L22.3337 23.3609L21.8022 22.7216L21.0333 23.3609ZM16.4281 17.8221L17.1971 17.1828L16.5578 16.4139L15.7888 17.0532L16.4281 17.8221ZM14.5429 2C18.0208 2 20.9148 4.55162 21.4606 7.88431L23.4343 7.56112C22.7337 3.28262 19.0219 0 14.5429 0V2ZM7.62533 7.88431C8.17105 4.55156 11.0644 2 14.5429 2V0C10.0632 0 6.35219 3.28268 5.65162 7.56112L7.62533 7.88431ZM1 8.72271H6.63847V6.72271H1V8.72271ZM2 39V7.72271H0V39H2ZM28.0859 38H1V40H28.0859V38ZM27.0859 7.72271V39H29.0859V7.72271H27.0859ZM22.4474 8.72271H28.0859V6.72271H22.4474V8.72271ZM20.7759 7.4835C20.0861 4.68353 17.5608 2.59371 14.5429 2.59371V4.59371C16.6136 4.59371 18.3578 6.02911 18.834 7.96192L20.7759 7.4835ZM9.28023 8.72271H19.8049V6.72271H9.28023V8.72271ZM14.5429 2.59371C11.5256 2.59371 9.00074 4.68363 8.3094 7.48295L10.2511 7.96248C10.7286 6.02901 12.4732 4.59371 14.5429 4.59371V2.59371ZM17.3513 21.4252L15.2029 18.8408L13.6649 20.1193L15.8133 22.7037L17.3513 21.4252ZM8.05396 23.0644H16.5823V21.0644H8.05396V23.0644ZM9.05396 24.6567V22.0644H7.05396V24.6567H9.05396ZM16.5837 23.6567H8.05396V25.6567H16.5837V23.6567ZM15.2029 27.8818L17.3527 25.296L15.8148 24.0174L13.6649 26.6032L15.2029 27.8818ZM17.0674 28.1315L15.0732 26.4736L13.7946 28.0115L15.7888 29.6694L17.0674 28.1315ZM20.2643 22.7217L15.6591 28.2612L17.1971 29.5397L21.8022 24.0002L20.2643 22.7217ZM15.6592 18.4615L20.2643 24.0003L21.8022 22.7216L17.1971 17.1828L15.6592 18.4615ZM15.0732 20.249L17.0674 18.5911L15.7888 17.0532L13.7946 18.7111L15.0732 20.249Z" fill="white" mask="url(#path-1-outside-1)"/>
</svg>
