<svg width="34" height="34" viewBox="0 0 34 34" fill="none" xmlns="http://www.w3.org/2000/svg">
<path d="M10.8151 14.0246L10.6927 14.1324L10.6574 14.2915L8.40282 24.437L8.23237 25.204L8.99937 25.0335L19.1448 22.779L19.287 22.7474L19.3899 22.6445L32.3536 9.68083L32.6932 9.34113L32.3674 8.98813L25.6038 1.66086L25.2726 1.30209L24.906 1.62464L10.8151 14.0246Z" fill="black" stroke="white"/>
<path d="M18.6963 5.75719L19.691 4.88184H18.3659H7C3.41015 4.88184 0.5 7.79198 0.5 11.3818V26.4364C0.5 30.0262 3.41015 32.9364 7 32.9364H23.1818C26.7717 32.9364 29.6818 30.0262 29.6818 26.4364V14.9739V13.7668L28.8283 14.6203L25.8283 17.6203L25.6818 17.7668V17.9739V26.4364C25.6818 27.8171 24.5625 28.9364 23.1818 28.9364H7C5.61929 28.9364 4.5 27.8171 4.5 26.4364V11.3818C4.5 10.0011 5.61929 8.88184 7 8.88184H14.9569H15.1455L15.2872 8.75719L18.6963 5.75719Z" fill="black" stroke="white"/>
</svg>
