<svg width="43" height="43" viewBox="0 0 43 43" fill="none" xmlns="http://www.w3.org/2000/svg">
<mask id="path-1-outside-1" maskUnits="userSpaceOnUse" x="31.0227" y="11.1494" width="12" height="32" fill="black">
<rect fill="white" x="31.0227" y="11.1494" width="12" height="32"/>
<path fill-rule="evenodd" clip-rule="evenodd" d="M35.3523 18.0906C35.3523 16.8966 35.6489 15.831 36.0576 15.0946C36.5057 14.2871 36.9108 14.1494 37.0114 14.1494L37.0102 14.1494C37.0102 14.1494 37.0104 14.1495 37.0107 14.1495C37.0187 14.1506 37.1195 14.165 37.3093 14.3403C37.5118 14.5273 37.7388 14.8305 37.9531 15.2407C38.3834 16.0645 38.6705 17.142 38.6705 18.0906V22.0319H35.3523V18.0906ZM35.3523 24.0319V32.3635H38.6705V24.0319H35.3523ZM40.6705 18.0906V32.3635H42V40C42 41.1045 41.1046 42 40 42H34.0227C32.9181 42 32.0227 41.1045 32.0227 40V32.3635H33.3523V18.0906C33.3523 16.5894 33.7204 15.1845 34.3088 14.1241C34.8579 13.1347 35.7824 12.1494 37.0114 12.1494C37.6893 12.1494 38.2531 12.4895 38.6662 12.871C39.0869 13.2595 39.4415 13.7705 39.7259 14.3148C40.2928 15.4002 40.6705 16.7933 40.6705 18.0906ZM34.0227 40V34.3635H40V40H34.0227Z"/>
</mask>
<path fill-rule="evenodd" clip-rule="evenodd" d="M35.3523 18.0906C35.3523 16.8966 35.6489 15.831 36.0576 15.0946C36.5057 14.2871 36.9108 14.1494 37.0114 14.1494L37.0102 14.1494C37.0102 14.1494 37.0104 14.1495 37.0107 14.1495C37.0187 14.1506 37.1195 14.165 37.3093 14.3403C37.5118 14.5273 37.7388 14.8305 37.9531 15.2407C38.3834 16.0645 38.6705 17.142 38.6705 18.0906V22.0319H35.3523V18.0906ZM35.3523 24.0319V32.3635H38.6705V24.0319H35.3523ZM40.6705 18.0906V32.3635H42V40C42 41.1045 41.1046 42 40 42H34.0227C32.9181 42 32.0227 41.1045 32.0227 40V32.3635H33.3523V18.0906C33.3523 16.5894 33.7204 15.1845 34.3088 14.1241C34.8579 13.1347 35.7824 12.1494 37.0114 12.1494C37.6893 12.1494 38.2531 12.4895 38.6662 12.871C39.0869 13.2595 39.4415 13.7705 39.7259 14.3148C40.2928 15.4002 40.6705 16.7933 40.6705 18.0906ZM34.0227 40V34.3635H40V40H34.0227Z" fill="black"/>
<path d="M36.0576 15.0946L36.932 15.5798L36.0576 15.0946ZM37.0114 14.1494L37.0172 15.1494L37.0114 13.1494V14.1494ZM37.0102 14.1494L37.0044 13.1494L36.0881 13.1548L36.0135 14.0681L37.0102 14.1494ZM37.0107 14.1495L37.1515 13.1595L37.1514 13.1594L37.0107 14.1495ZM37.3093 14.3403L37.9877 13.6056L37.9877 13.6056L37.3093 14.3403ZM37.9531 15.2407L37.0667 15.7037L37.9531 15.2407ZM38.6705 22.0319V23.0319H39.6705V22.0319H38.6705ZM35.3523 22.0319H34.3523V23.0319H35.3523V22.0319ZM35.3523 24.0319V23.0319H34.3523V24.0319H35.3523ZM35.3523 32.3635H34.3523V33.3635H35.3523V32.3635ZM38.6705 32.3635V33.3635H39.6705V32.3635H38.6705ZM38.6705 24.0319H39.6705V23.0319H38.6705V24.0319ZM40.6705 32.3635H39.6705V33.3635H40.6705V32.3635ZM42 32.3635H43V31.3635H42V32.3635ZM32.0227 32.3635V31.3635H31.0227V32.3635H32.0227ZM33.3523 32.3635V33.3635H34.3523V32.3635H33.3523ZM34.3088 14.1241L33.4345 13.6388H33.4345L34.3088 14.1241ZM38.6662 12.871L39.3446 12.1363L39.3446 12.1363L38.6662 12.871ZM39.7259 14.3148L38.8395 14.7778L39.7259 14.3148ZM34.0227 34.3635V33.3635H33.0227V34.3635H34.0227ZM34.0227 40H33.0227V41H34.0227V40ZM40 34.3635H41V33.3635H40V34.3635ZM40 40V41H41V40H40ZM35.1832 14.6093C34.6847 15.5077 34.3523 16.743 34.3523 18.0906H36.3523C36.3523 17.0503 36.6132 16.1543 36.932 15.5798L35.1832 14.6093ZM37.0114 13.1494C36.6444 13.1494 36.302 13.3296 36.0416 13.5372C35.7484 13.7708 35.4563 14.1173 35.1832 14.6093L36.932 15.5798C37.107 15.2644 37.2415 15.1383 37.288 15.1012C37.3115 15.0826 37.3101 15.0883 37.2793 15.1016C37.2641 15.1082 37.2378 15.1183 37.2002 15.1276C37.1682 15.1355 37.1021 15.1494 37.0114 15.1494V13.1494ZM37.0161 15.1494L37.0172 15.1494L37.0055 13.1494L37.0044 13.1494L37.0161 15.1494ZM37.1514 13.1594C37.1469 13.1588 37.1573 13.1602 37.1677 13.1619C37.1696 13.1622 37.1945 13.166 37.2253 13.1728C37.2344 13.1748 37.2849 13.1856 37.3466 13.2077C37.3697 13.2159 37.4559 13.2467 37.5536 13.3099C37.6014 13.3409 37.7018 13.411 37.7967 13.5318C37.8962 13.6585 38.0338 13.9018 38.0069 14.2308L36.0135 14.0681C35.9867 14.3971 36.1242 14.6403 36.2238 14.7671C36.3186 14.8878 36.419 14.9579 36.4668 14.9889C36.5645 15.0522 36.6507 15.0829 36.6739 15.0912C36.7356 15.1132 36.7861 15.124 36.7952 15.126C36.8261 15.1328 36.851 15.1367 36.853 15.137C36.8601 15.1381 36.8658 15.1389 36.8671 15.1391C36.8681 15.1393 36.869 15.1394 36.8694 15.1395C36.8696 15.1395 36.8698 15.1395 36.8699 15.1395C36.87 15.1396 36.8701 15.1396 36.8701 15.1396L37.1514 13.1594ZM37.9877 13.6056C37.6822 13.3235 37.4013 13.195 37.1515 13.1595L36.8699 15.1395C36.8701 15.1396 36.8688 15.1394 36.8671 15.1391C36.8654 15.1389 36.8632 15.1386 36.8608 15.1382C36.8557 15.1374 36.8501 15.1365 36.8439 15.1355C36.8316 15.1333 36.819 15.1309 36.8063 15.1281C36.7807 15.1226 36.7569 15.1162 36.7349 15.1094C36.691 15.0956 36.6576 15.0808 36.6349 15.0691C36.5904 15.0462 36.5898 15.0371 36.6309 15.0749L37.9877 13.6056ZM38.8395 14.7778C38.5902 14.3005 38.2994 13.8934 37.9877 13.6056L36.6309 15.0749C36.7243 15.1612 36.8875 15.3605 37.0667 15.7037L38.8395 14.7778ZM39.6705 18.0906C39.6705 16.9677 39.3381 15.7324 38.8395 14.7778L37.0667 15.7037C37.4286 16.3966 37.6705 17.3163 37.6705 18.0906H39.6705ZM39.6705 22.0319V18.0906H37.6705V22.0319H39.6705ZM35.3523 23.0319H38.6705V21.0319H35.3523V23.0319ZM34.3523 18.0906V22.0319H36.3523V18.0906H34.3523ZM34.3523 24.0319V32.3635H36.3523V24.0319H34.3523ZM35.3523 33.3635H38.6705V31.3635H35.3523V33.3635ZM39.6705 32.3635V24.0319H37.6705V32.3635H39.6705ZM38.6705 23.0319H35.3523V25.0319H38.6705V23.0319ZM41.6705 32.3635V18.0906H39.6705V32.3635H41.6705ZM42 31.3635H40.6705V33.3635H42V31.3635ZM43 40V32.3635H41V40H43ZM40 43C41.6569 43 43 41.6568 43 40H41C41 40.5523 40.5523 41 40 41V43ZM34.0227 43H40V41H34.0227V43ZM31.0227 40C31.0227 41.6568 32.3659 43 34.0227 43V41C33.4704 41 33.0227 40.5523 33.0227 40H31.0227ZM31.0227 32.3635V40H33.0227V32.3635H31.0227ZM33.3523 31.3635H32.0227V33.3635H33.3523V31.3635ZM32.3523 18.0906V32.3635H34.3523V18.0906H32.3523ZM33.4345 13.6388C32.7561 14.8613 32.3523 16.4359 32.3523 18.0906H34.3523C34.3523 16.743 34.6847 15.5077 35.1832 14.6093L33.4345 13.6388ZM37.0114 11.1494C35.2146 11.1494 34.0311 12.5638 33.4345 13.6388L35.1832 14.6093C35.6847 13.7056 36.3501 13.1494 37.0114 13.1494V11.1494ZM39.3446 12.1363C38.8313 11.6623 38.036 11.1494 37.0114 11.1494V13.1494C37.3426 13.1494 37.6749 13.3167 37.9877 13.6056L39.3446 12.1363ZM40.6122 13.8518C40.2929 13.2405 39.8744 12.6256 39.3446 12.1363L37.9877 13.6056C38.2994 13.8934 38.5902 14.3005 38.8395 14.7778L40.6122 13.8518ZM41.6705 18.0906C41.6705 16.6189 41.2474 15.068 40.6122 13.8518L38.8395 14.7778C39.3381 15.7324 39.6705 16.9677 39.6705 18.0906H41.6705ZM33.0227 34.3635V40H35.0227V34.3635H33.0227ZM40 33.3635H34.0227V35.3635H40V33.3635ZM41 40V34.3635H39V40H41ZM34.0227 41H40V39H34.0227V41Z" fill="white" mask="url(#path-1-outside-1)"/>
<mask id="path-3-outside-2" maskUnits="userSpaceOnUse" x="0" y="0" width="31" height="43" fill="black">
<rect fill="white" width="31" height="43"/>
<path fill-rule="evenodd" clip-rule="evenodd" d="M8.01699 7.5883H8V9.5883H10V13.0478H1V42H29.591V13.0478H20V9.5883H22V8.08151H22.0003C22.0003 8.06175 22.0002 8.04201 22 8.02228V7.5883H21.9835C21.7335 3.9183 18.714 1 15.0003 1C11.2865 1 8.26706 3.9183 8.01699 7.5883ZM10.0234 7.5883H19.9771C19.7327 5.00304 17.5867 3 15.0003 3C12.4138 3 10.2678 5.00304 10.0234 7.5883ZM18 9.5883V13.0478H12V9.5883H18ZM3 40V15.0478H27.591V40H3ZM15.2954 33.1604C18.5712 33.1604 21.2727 30.4612 21.2727 27.0747C21.2727 23.6882 18.5712 20.9891 15.2954 20.9891C12.0196 20.9891 9.31812 23.6882 9.31812 27.0747C9.31812 30.4612 12.0196 33.1604 15.2954 33.1604ZM15.2954 35.1604C19.7011 35.1604 23.2727 31.5403 23.2727 27.0747C23.2727 22.6091 19.7011 18.9891 15.2954 18.9891C10.8897 18.9891 7.31812 22.6091 7.31812 27.0747C7.31812 31.5403 10.8897 35.1604 15.2954 35.1604Z"/>
</mask>
<path fill-rule="evenodd" clip-rule="evenodd" d="M8.01699 7.5883H8V9.5883H10V13.0478H1V42H29.591V13.0478H20V9.5883H22V8.08151H22.0003C22.0003 8.06175 22.0002 8.04201 22 8.02228V7.5883H21.9835C21.7335 3.9183 18.714 1 15.0003 1C11.2865 1 8.26706 3.9183 8.01699 7.5883ZM10.0234 7.5883H19.9771C19.7327 5.00304 17.5867 3 15.0003 3C12.4138 3 10.2678 5.00304 10.0234 7.5883ZM18 9.5883V13.0478H12V9.5883H18ZM3 40V15.0478H27.591V40H3ZM15.2954 33.1604C18.5712 33.1604 21.2727 30.4612 21.2727 27.0747C21.2727 23.6882 18.5712 20.9891 15.2954 20.9891C12.0196 20.9891 9.31812 23.6882 9.31812 27.0747C9.31812 30.4612 12.0196 33.1604 15.2954 33.1604ZM15.2954 35.1604C19.7011 35.1604 23.2727 31.5403 23.2727 27.0747C23.2727 22.6091 19.7011 18.9891 15.2954 18.9891C10.8897 18.9891 7.31812 22.6091 7.31812 27.0747C7.31812 31.5403 10.8897 35.1604 15.2954 35.1604Z" fill="black"/>
<path d="M8 7.5883V6.5883H7V7.5883H8ZM8.01699 7.5883V8.5883H8.95117L9.01468 7.65628L8.01699 7.5883ZM8 9.5883H7V10.5883H8V9.5883ZM10 9.5883H11V8.5883H10V9.5883ZM10 13.0478V14.0478H11V13.0478H10ZM1 13.0478V12.0478H0V13.0478H1ZM1 42H0V43H1V42ZM29.591 42V43H30.591V42H29.591ZM29.591 13.0478H30.591V12.0478H29.591V13.0478ZM20 13.0478H19V14.0478H20V13.0478ZM20 9.5883V8.5883H19V9.5883H20ZM22 9.5883V10.5883H23V9.5883H22ZM22 8.08151V7.08151H21V8.08151H22ZM22.0003 8.08151V9.08151H23.0003V8.08151H22.0003ZM22 8.02228H21L21.0001 8.03041L22 8.02228ZM22 7.5883H23V6.5883H22V7.5883ZM21.9835 7.5883L20.9858 7.65628L21.0494 8.5883H21.9835V7.5883ZM10.0234 7.5883L9.02787 7.49418L8.92443 8.5883H10.0234V7.5883ZM19.9771 7.5883V8.5883H21.0761L20.9727 7.49418L19.9771 7.5883ZM18 9.5883H19V8.5883H18V9.5883ZM18 13.0478V14.0478H19V13.0478H18ZM12 13.0478H11V14.0478H12V13.0478ZM12 9.5883V8.5883H11V9.5883H12ZM3 15.0478V14.0478H2V15.0478H3ZM3 40H2V41H3V40ZM27.591 15.0478H28.591V14.0478H27.591V15.0478ZM27.591 40V41H28.591V40H27.591ZM8 8.5883H8.01699V6.5883H8V8.5883ZM9 9.5883V7.5883H7V9.5883H9ZM10 8.5883H8V10.5883H10V8.5883ZM9 9.5883V13.0478H11V9.5883H9ZM10 12.0478H1V14.0478H10V12.0478ZM0 13.0478V42H2V13.0478H0ZM1 43H29.591V41H1V43ZM30.591 42V13.0478H28.591V42H30.591ZM29.591 12.0478H20V14.0478H29.591V12.0478ZM21 13.0478V9.5883H19V13.0478H21ZM22 8.5883H20V10.5883H22V8.5883ZM21 8.08151V9.5883H23V8.08151H21ZM22 9.08151H22.0003V7.08151H22V9.08151ZM23.0003 8.08151C23.0003 8.05905 23.0002 8.0366 23 8.01416L21.0001 8.03041C21.0002 8.04742 21.0003 8.06445 21.0003 8.08151H23.0003ZM21 7.5883V8.02228H23V7.5883H21ZM21.9835 8.5883H22V6.5883H21.9835V8.5883ZM22.9812 7.52032C22.6965 3.34136 19.2555 0 15.0003 0V2C18.1725 2 20.7705 4.49525 20.9858 7.65628L22.9812 7.52032ZM15.0003 0C10.745 0 7.30406 3.34136 7.01931 7.52032L9.01468 7.65628C9.23007 4.49525 11.828 2 15.0003 2V0ZM10.0234 8.5883H19.9771V6.5883H10.0234V8.5883ZM15.0003 4C17.0558 4 18.7842 5.59555 18.9815 7.68242L20.9727 7.49418C20.6811 4.41052 18.1176 2 15.0003 2V4ZM11.019 7.68242C11.2163 5.59555 12.9447 4 15.0003 4V2C11.8829 2 9.31939 4.41052 9.02787 7.49418L11.019 7.68242ZM17 9.5883V13.0478H19V9.5883H17ZM18 12.0478H12V14.0478H18V12.0478ZM13 13.0478V9.5883H11V13.0478H13ZM18 8.5883H12V10.5883H18V8.5883ZM2 15.0478V40H4V15.0478H2ZM27.591 14.0478H3V16.0478H27.591V14.0478ZM28.591 40V15.0478H26.591V40H28.591ZM3 41H27.591V39H3V41ZM20.2727 27.0747C20.2727 29.9204 18.0075 32.1604 15.2954 32.1604V34.1604C19.1349 34.1604 22.2727 31.002 22.2727 27.0747H20.2727ZM15.2954 21.9891C18.0075 21.9891 20.2727 24.229 20.2727 27.0747H22.2727C22.2727 23.1474 19.1349 19.9891 15.2954 19.9891V21.9891ZM10.3181 27.0747C10.3181 24.229 12.5833 21.9891 15.2954 21.9891V19.9891C11.4559 19.9891 8.31812 23.1474 8.31812 27.0747H10.3181ZM15.2954 32.1604C12.5833 32.1604 10.3181 29.9204 10.3181 27.0747H8.31812C8.31812 31.002 11.4559 34.1604 15.2954 34.1604V32.1604ZM22.2727 27.0747C22.2727 31.0008 19.1362 34.1604 15.2954 34.1604V36.1604C20.2661 36.1604 24.2727 32.0798 24.2727 27.0747H22.2727ZM15.2954 19.9891C19.1362 19.9891 22.2727 23.1486 22.2727 27.0747H24.2727C24.2727 22.0696 20.2661 17.9891 15.2954 17.9891V19.9891ZM8.31812 27.0747C8.31812 23.1486 11.4546 19.9891 15.2954 19.9891V17.9891C10.3247 17.9891 6.31812 22.0696 6.31812 27.0747H8.31812ZM15.2954 34.1604C11.4546 34.1604 8.31812 31.0008 8.31812 27.0747H6.31812C6.31812 32.0798 10.3247 36.1604 15.2954 36.1604V34.1604Z" fill="white" mask="url(#path-3-outside-2)"/>
</svg>
