<svg width="40" height="41" viewBox="0 0 40 41" fill="none" xmlns="http://www.w3.org/2000/svg">
<mask id="path-1-outside-1" maskUnits="userSpaceOnUse" x="0" y="0.0627441" width="40" height="41" fill="black">
<rect fill="white" y="0.0627441" width="40" height="41"/>
<path fill-rule="evenodd" clip-rule="evenodd" d="M21.1971 2.76187C21.7977 2.29235 22.6803 1.76255 23.7369 1.42153C25.1273 0.97277 26.8784 0.834635 28.6785 1.66473C30.0713 2.30706 30.9551 3.28906 31.4661 4.447C31.8409 5.29634 32.0032 6.21228 32.0535 7.11222L38.2381 7.11225V17.0952H36.0078V40H3.23026V17.0952H1V7.11225H7.2646C7.31492 6.2123 7.47725 5.29635 7.85204 4.447C8.363 3.28906 9.24681 2.30706 10.6397 1.66473C12.4397 0.834635 14.1908 0.97277 15.5812 1.42153C16.6378 1.76255 17.5204 2.29235 18.121 2.76187H21.1971ZM13.9355 7.11225H9.26851C9.31604 6.42045 9.44321 5.79515 9.68181 5.25442C10.0008 4.53144 10.5377 3.91416 11.4772 3.48091C12.7136 2.91074 13.9278 2.98948 14.9669 3.32485C15.6288 3.5385 16.1958 3.84969 16.6118 4.13471V5.80714H13.9355V7.11225ZM22.381 4.37535V5.80714H25.0238V6.40472H25.0239V7.15764L30.0496 7.11267C30.0021 6.42071 29.875 5.79526 29.6363 5.25442C29.3173 4.53144 28.7804 3.91416 27.8409 3.48091C26.6045 2.91074 25.3903 2.98948 24.3512 3.32485C23.4954 3.60108 22.7983 4.04038 22.381 4.37535ZM23.0239 9.17562L23.0238 9.17562V7.84519H16.2144V38H23.0239V9.17562ZM18.6118 5.84519V4.76187H20.381V5.84519H18.6118ZM3 9.11225H14.2144V15.0952H5.23026H3.76196H3V9.11225ZM5.23026 17.0952H14.2144V38H5.23026V17.0952ZM25.0239 38H34.0078V17.0952H25.0239V38ZM25.0239 15.0952V9.15772L30.1057 9.11225H36.2381V15.0952H35.4763H34.0078H25.0239Z"/>
</mask>
<path fill-rule="evenodd" clip-rule="evenodd" d="M21.1971 2.76187C21.7977 2.29235 22.6803 1.76255 23.7369 1.42153C25.1273 0.97277 26.8784 0.834635 28.6785 1.66473C30.0713 2.30706 30.9551 3.28906 31.4661 4.447C31.8409 5.29634 32.0032 6.21228 32.0535 7.11222L38.2381 7.11225V17.0952H36.0078V40H3.23026V17.0952H1V7.11225H7.2646C7.31492 6.2123 7.47725 5.29635 7.85204 4.447C8.363 3.28906 9.24681 2.30706 10.6397 1.66473C12.4397 0.834635 14.1908 0.97277 15.5812 1.42153C16.6378 1.76255 17.5204 2.29235 18.121 2.76187H21.1971ZM13.9355 7.11225H9.26851C9.31604 6.42045 9.44321 5.79515 9.68181 5.25442C10.0008 4.53144 10.5377 3.91416 11.4772 3.48091C12.7136 2.91074 13.9278 2.98948 14.9669 3.32485C15.6288 3.5385 16.1958 3.84969 16.6118 4.13471V5.80714H13.9355V7.11225ZM22.381 4.37535V5.80714H25.0238V6.40472H25.0239V7.15764L30.0496 7.11267C30.0021 6.42071 29.875 5.79526 29.6363 5.25442C29.3173 4.53144 28.7804 3.91416 27.8409 3.48091C26.6045 2.91074 25.3903 2.98948 24.3512 3.32485C23.4954 3.60108 22.7983 4.04038 22.381 4.37535ZM23.0239 9.17562L23.0238 9.17562V7.84519H16.2144V38H23.0239V9.17562ZM18.6118 5.84519V4.76187H20.381V5.84519H18.6118ZM3 9.11225H14.2144V15.0952H5.23026H3.76196H3V9.11225ZM5.23026 17.0952H14.2144V38H5.23026V17.0952ZM25.0239 38H34.0078V17.0952H25.0239V38ZM25.0239 15.0952V9.15772L30.1057 9.11225H36.2381V15.0952H35.4763H34.0078H25.0239Z" fill="black"/>
<path d="M23.7369 1.42153L23.4298 0.469864L23.7369 1.42153ZM21.1971 2.76187V3.76187H21.5416L21.813 3.54969L21.1971 2.76187ZM28.6785 1.66473L29.0972 0.756645V0.756645L28.6785 1.66473ZM31.4661 4.447L32.381 4.04329V4.04329L31.4661 4.447ZM32.0535 7.11222L31.0551 7.16805L31.1079 8.11222L32.0535 8.11222L32.0535 7.11222ZM38.2381 7.11225H39.2381V6.11226L38.2381 6.11225L38.2381 7.11225ZM38.2381 17.0952V18.0952H39.2381V17.0952H38.2381ZM36.0078 17.0952V16.0952H35.0078V17.0952H36.0078ZM36.0078 40V41H37.0078V40H36.0078ZM3.23026 40H2.23026V41H3.23026V40ZM3.23026 17.0952H4.23026V16.0952H3.23026V17.0952ZM1 17.0952H0V18.0952H1V17.0952ZM1 7.11225V6.11225H0V7.11225H1ZM7.2646 7.11225V8.11225H8.21025L8.26304 7.16808L7.2646 7.11225ZM7.85204 4.447L8.76693 4.85071L7.85204 4.447ZM10.6397 1.66473L10.2209 0.756645V0.756645L10.6397 1.66473ZM15.5812 1.42153L15.274 2.37319L15.274 2.37319L15.5812 1.42153ZM18.121 2.76187L17.5051 3.54969L17.7765 3.76187H18.121V2.76187ZM9.26851 7.11225L8.27086 7.04371L8.19744 8.11225H9.26851V7.11225ZM13.9355 7.11225V8.11225H14.9355V7.11225H13.9355ZM9.68181 5.25442L8.76693 4.85071V4.85071L9.68181 5.25442ZM11.4772 3.48091L11.0584 2.57282L11.4772 3.48091ZM14.9669 3.32485L15.274 2.37319L15.274 2.37319L14.9669 3.32485ZM16.6118 4.13471H17.6118V3.60765L17.177 3.30976L16.6118 4.13471ZM16.6118 5.80714V6.80714H17.6118V5.80714H16.6118ZM13.9355 5.80714V4.80714H12.9355V5.80714H13.9355ZM22.381 5.80714H21.381V6.80714H22.381V5.80714ZM22.381 4.37535L21.755 3.59547L21.381 3.8957V4.37535H22.381ZM25.0238 5.80714H26.0238V4.80714H25.0238V5.80714ZM25.0238 6.40472H24.0238V7.40472H25.0238V6.40472ZM25.0239 6.40472H26.0239V5.40472H25.0239V6.40472ZM25.0239 7.15764H24.0239V8.16663L25.0329 8.1576L25.0239 7.15764ZM30.0496 7.11267L30.0586 8.11263L31.12 8.10314L31.0473 7.04418L30.0496 7.11267ZM29.6363 5.25442L28.7214 5.65813V5.65813L29.6363 5.25442ZM27.8409 3.48091L28.2597 2.57282H28.2597L27.8409 3.48091ZM24.3512 3.32485L24.0441 2.37319V2.37319L24.3512 3.32485ZM23.0238 9.17562H22.0238V10.184L23.0321 10.1756L23.0238 9.17562ZM23.0239 9.17562H24.0239V8.16725L23.0156 8.17565L23.0239 9.17562ZM23.0238 7.84519H24.0238V6.84519H23.0238V7.84519ZM16.2144 7.84519V6.84519H15.2144V7.84519H16.2144ZM16.2144 38H15.2144V39H16.2144V38ZM23.0239 38V39H24.0239V38H23.0239ZM18.6118 5.84519H17.6118V6.84519H18.6118V5.84519ZM18.6118 4.76187V3.76187H17.6118V4.76187H18.6118ZM20.381 4.76187H21.381V3.76187H20.381V4.76187ZM20.381 5.84519V6.84519H21.381V5.84519H20.381ZM14.2144 9.11225H15.2144V8.11225H14.2144V9.11225ZM3 9.11225V8.11225H2V9.11225H3ZM14.2144 15.0952V16.0952H15.2144V15.0952H14.2144ZM3 15.0952H2V16.0952H3V15.0952ZM14.2144 17.0952H15.2144V16.0952H14.2144V17.0952ZM5.23026 17.0952V16.0952H4.23026V17.0952H5.23026ZM14.2144 38V39H15.2144V38H14.2144ZM5.23026 38H4.23026V39H5.23026V38ZM34.0078 38V39H35.0078V38H34.0078ZM25.0239 38H24.0239V39H25.0239V38ZM34.0078 17.0952H35.0078V16.0952H34.0078V17.0952ZM25.0239 17.0952V16.0952H24.0239V17.0952H25.0239ZM25.0239 9.15772L25.015 8.15776L24.0239 8.16663V9.15772H25.0239ZM25.0239 15.0952H24.0239V16.0952H25.0239V15.0952ZM30.1057 9.11225V8.11221L30.0968 8.11229L30.1057 9.11225ZM36.2381 9.11225H37.2381V8.11225H36.2381V9.11225ZM36.2381 15.0952V16.0952H37.2381V15.0952H36.2381ZM23.4298 0.469864C22.2462 0.851864 21.2608 1.44277 20.5812 1.97405L21.813 3.54969C22.3346 3.14193 23.1144 2.67323 24.0441 2.37319L23.4298 0.469864ZM29.0972 0.756645C27.015 -0.203581 24.9954 -0.0354354 23.4298 0.469864L24.0441 2.37319C25.2593 1.98098 26.7418 1.87285 28.2597 2.57282L29.0972 0.756645ZM32.381 4.04329C31.7741 2.66792 30.7168 1.50354 29.0972 0.756645L28.2597 2.57282C29.4258 3.11059 30.1362 3.9102 30.5512 4.85071L32.381 4.04329ZM33.052 7.05639C32.9973 6.07929 32.819 5.03605 32.381 4.04329L30.5512 4.85071C30.8627 5.55663 31.0091 6.34527 31.0551 7.16805L33.052 7.05639ZM38.2381 6.11225L32.0535 6.11222L32.0535 8.11222L38.2381 8.11225L38.2381 6.11225ZM39.2381 17.0952V7.11225H37.2381V17.0952H39.2381ZM36.0078 18.0952H38.2381V16.0952H36.0078V18.0952ZM37.0078 40V17.0952H35.0078V40H37.0078ZM3.23026 41H36.0078V39H3.23026V41ZM2.23026 17.0952V40H4.23026V17.0952H2.23026ZM1 18.0952H3.23026V16.0952H1V18.0952ZM0 7.11225V17.0952H2V7.11225H0ZM7.2646 6.11225H1V8.11225H7.2646V6.11225ZM6.93715 4.04329C6.49908 5.03606 6.32079 6.07931 6.26616 7.05643L8.26304 7.16808C8.30905 6.34528 8.45543 5.55663 8.76693 4.85071L6.93715 4.04329ZM10.2209 0.756645C8.6013 1.50354 7.54406 2.66792 6.93715 4.04329L8.76693 4.85071C9.18195 3.9102 9.89233 3.11059 11.0584 2.57282L10.2209 0.756645ZM15.8883 0.469864C14.3227 -0.0354356 12.3031 -0.203581 10.2209 0.756645L11.0584 2.57282C12.5763 1.87285 14.0588 1.98098 15.274 2.37319L15.8883 0.469864ZM18.7369 1.97405C18.0573 1.44277 17.0719 0.851864 15.8883 0.469864L15.274 2.37319C16.2037 2.67323 16.9835 3.14193 17.5051 3.54969L18.7369 1.97405ZM21.1971 1.76187H18.121V3.76187H21.1971V1.76187ZM9.26851 8.11225H13.9355V6.11225H9.26851V8.11225ZM8.76693 4.85071C8.46754 5.52917 8.32356 6.2767 8.27086 7.04371L10.2662 7.1808C10.3085 6.56421 10.4189 6.06112 10.5967 5.65813L8.76693 4.85071ZM11.0584 2.57282C9.89235 3.11058 9.18196 3.91017 8.76693 4.85071L10.5967 5.65813C10.8197 5.15271 11.1831 4.71775 11.896 4.389L11.0584 2.57282ZM15.274 2.37319C14.0586 1.98091 12.5761 1.87292 11.0584 2.57282L11.896 4.389C12.851 3.94856 13.797 3.99805 14.6597 4.27651L15.274 2.37319ZM17.177 3.30976C16.6962 2.98036 16.0432 2.62144 15.274 2.37319L14.6597 4.27651C15.2145 4.45556 15.6954 4.71902 16.0466 4.95967L17.177 3.30976ZM17.6118 5.80714V4.13471H15.6118V5.80714H17.6118ZM13.9355 6.80714H16.6118V4.80714H13.9355V6.80714ZM14.9355 7.11225V5.80714H12.9355V7.11225H14.9355ZM23.381 5.80714V4.37535H21.381V5.80714H23.381ZM25.0238 4.80714H22.381V6.80714H25.0238V4.80714ZM26.0238 6.40472V5.80714H24.0238V6.40472H26.0238ZM25.0239 5.40472H25.0238V7.40472H25.0239V5.40472ZM26.0239 7.15764V6.40472H24.0239V7.15764H26.0239ZM30.0407 6.11271L25.015 6.15768L25.0329 8.1576L30.0586 8.11263L30.0407 6.11271ZM28.7214 5.65813C28.8993 6.0612 29.0096 6.56441 29.052 7.18117L31.0473 7.04418C30.9946 6.277 30.8506 5.52931 30.5512 4.85071L28.7214 5.65813ZM27.4221 4.389C28.135 4.71775 28.4984 5.15271 28.7214 5.65813L30.5512 4.85071C30.1362 3.91017 29.4258 3.11058 28.2597 2.57282L27.4221 4.389ZM24.6584 4.27651C25.5212 3.99805 26.4671 3.94856 27.4221 4.389L28.2597 2.57282C26.742 1.87292 25.2595 1.98091 24.0441 2.37319L24.6584 4.27651ZM23.0069 5.15523C23.346 4.88309 23.937 4.50932 24.6584 4.27651L24.0441 2.37319C23.0537 2.69284 22.2507 3.19767 21.755 3.59547L23.0069 5.15523ZM23.0321 10.1756L23.0323 10.1756L23.0156 8.17565L23.0155 8.17565L23.0321 10.1756ZM22.0238 7.84519V9.17562H24.0238V7.84519H22.0238ZM23.0238 6.84519H16.2144V8.84519H23.0238V6.84519ZM17.2144 38V7.84519H15.2144V38H17.2144ZM23.0239 37H16.2144V39H23.0239V37ZM22.0239 9.17562V38H24.0239V9.17562H22.0239ZM19.6118 5.84519V4.76187H17.6118V5.84519H19.6118ZM18.6118 5.76187H20.381V3.76187H18.6118V5.76187ZM19.381 4.76187V5.84519H21.381V4.76187H19.381ZM18.6118 6.84519H20.381V4.84519H18.6118V6.84519ZM14.2144 8.11225H3V10.1123H14.2144V8.11225ZM15.2144 15.0952V9.11225H13.2144V15.0952H15.2144ZM5.23026 16.0952H14.2144V14.0952H5.23026V16.0952ZM3.76196 16.0952H5.23026V14.0952H3.76196V16.0952ZM3 16.0952H3.76196V14.0952H3V16.0952ZM2 9.11225V15.0952H4V9.11225H2ZM14.2144 16.0952H5.23026V18.0952H14.2144V16.0952ZM15.2144 38V17.0952H13.2144V38H15.2144ZM5.23026 39H14.2144V37H5.23026V39ZM4.23026 17.0952V38H6.23026V17.0952H4.23026ZM34.0078 37H25.0239V39H34.0078V37ZM33.0078 17.0952V38H35.0078V17.0952H33.0078ZM25.0239 18.0952H34.0078V16.0952H25.0239V18.0952ZM26.0239 38V17.0952H24.0239V38H26.0239ZM24.0239 9.15772V15.0952H26.0239V9.15772H24.0239ZM30.0968 8.11229L25.015 8.15776L25.0329 10.1577L30.1147 10.1122L30.0968 8.11229ZM36.2381 8.11225H30.1057V10.1123H36.2381V8.11225ZM37.2381 15.0952V9.11225H35.2381V15.0952H37.2381ZM35.4763 16.0952H36.2381V14.0952H35.4763V16.0952ZM34.0078 16.0952H35.4763V14.0952H34.0078V16.0952ZM25.0239 16.0952H34.0078V14.0952H25.0239V16.0952Z" fill="white" mask="url(#path-1-outside-1)"/>
</svg>
